# xmcd
#
# Track frame offsets:
#	150
#	15887
#	28087
#	42685
#	60029
#	79122
#	92376
#	108488
#	123694
#	140314
#	158212
#	171950
#	187905
#	204788
#	224676
#	246591
#	263183
#	277743
#	294056
#	310082
#
# Disc length: 4457 seconds
#
# Revision: 1
# Processed by: cddbd v1.5.1PL0 Copyright (c) Steve Scherf et al.
# Submitted via: audiograbber 1.83.01
#
DISCID=0d116714
DTITLE=The Judds - Greatest Hits Volume 1 And 2
DYEAR=1900
DGENRE=Country
TTITLE0=Why Not Me
TTITLE1=Rockin' With The Rythm of The Rain
TTITLE2=Mama He's Crazy
TTITLE3=Give A Little Love
TTITLE4=Grandpa (Tell Me 'Bout The Good Old Days)
TTITLE5=Girls Night Out
TTITLE6=Change of Heart
TTITLE7=Have Mercy
TTITLE8=Cry Myself To Sleep
TTITLE9=Love Is Alive
TTITLE10=Let Me Tell You About Love
TTITLE11=John Deere Tractor
TTITLE12=Turn It Loose
TTITLE13=Young Love
TTITLE14=Born To Be Blue
TTITLE15=I Know Where I'm Goin'
TTITLE16=Had A Dream (For The Heart)
TTITLE17=Guardian Angel
TTITLE18=Maybe Your Baby's Got The Blues
TTITLE19=Love Can Build A Bridge
EXTD=
EXTT0=
EXTT1=
EXTT2=
EXTT3=
EXTT4=
EXTT5=
EXTT6=
EXTT7=
EXTT8=
EXTT9=
EXTT10=
EXTT11=
EXTT12=
EXTT13=
EXTT14=
EXTT15=
EXTT16=
EXTT17=
EXTT18=
EXTT19=
PLAYORDER=
